<svg xmlns="http://www.w3.org/2000/svg" viewBox="0 0 1200 900" width="1200" height="900" role="img" aria-label="Kutch Embroidered Pouch">
  <defs>
    <linearGradient id="g" x1="0" y1="0" x2="1" y2="1">
      <stop offset="0%" stop-color="#F1EDE6"/>
      <stop offset="100%" stop-color="#DFD5C6"/>
    </linearGradient>
  </defs>
  <rect width="1200" height="900" fill="url(#g)"/>
  <circle cx="944" cy="304" r="170" fill="none" stroke="#74452E" stroke-width="2" opacity="0.07"/><circle cx="693" cy="626" r="260" fill="none" stroke="#74452E" stroke-width="2" opacity="0.07"/><circle cx="661" cy="275" r="350" fill="none" stroke="#74452E" stroke-width="2" opacity="0.07"/>
  <g transform="translate(600 450) scale(0.86) rotate(4.800000000000001) translate(-600 -450)">
    <path d="M420 400 h360 q28 0 24 28 l-26 210 q-4 32 -36 32 h-284 q-32 0 -36 -32 l-26 -210 q-4 -28 24 -28 z" fill="#74452E" opacity="0.85"/>
    <rect x="410" y="372" width="380" height="42" rx="16" fill="#C28C6E"/>
    <circle cx="600" cy="393" r="13" fill="#F1EDE6"/>
    <circle cx="500" cy="530" r="20" fill="#C28C6E" opacity="0.55"/><circle cx="600" cy="530" r="20" fill="#C28C6E" opacity="0.55"/><circle cx="700" cy="530" r="20" fill="#C28C6E" opacity="0.55"/></g>
</svg>
