<svg xmlns="http://www.w3.org/2000/svg" viewBox="0 0 1200 1200" width="1200" height="1200" role="img" aria-label="Salt-White Espresso Cups">
  <defs>
    <linearGradient id="g" x1="0" y1="0" x2="1" y2="1">
      <stop offset="0%" stop-color="#EFE9E4"/>
      <stop offset="100%" stop-color="#D9CDBF"/>
    </linearGradient>
  </defs>
  <rect width="1200" height="1200" fill="url(#g)"/>
  <g transform="translate(0 150)"><circle cx="405" cy="265" r="170" fill="none" stroke="#4A2D20" stroke-width="2" opacity="0.07"/><circle cx="325" cy="582" r="260" fill="none" stroke="#4A2D20" stroke-width="2" opacity="0.07"/><circle cx="615" cy="643" r="350" fill="none" stroke="#4A2D20" stroke-width="2" opacity="0.07"/></g>
  <g transform="translate(600 600) scale(0.86) rotate(4.800000000000001) translate(-600 -450)">
    <path d="M400 400 h180 v110 q0 55 -90 55 q-90 0 -90 -55 z" fill="#4A2D20" opacity="0.85"/>
    <ellipse cx="490" cy="400" rx="90" ry="20" fill="#A96F4C"/>
    <path d="M660 430 h180 v110 q0 55 -90 55 q-90 0 -90 -55 z" fill="#4A2D20" opacity="0.7"/>
    <ellipse cx="750" cy="430" rx="90" ry="20" fill="#A96F4C" opacity="0.85"/>
    <path d="M380 610 h220" stroke="#4A2D20" stroke-width="12" opacity="0.4" stroke-linecap="round"/></g>
</svg>
