<svg xmlns="http://www.w3.org/2000/svg" viewBox="0 0 1200 1200" width="1200" height="1200" role="img" aria-label="Hand-Bound Sketchbook">
  <defs>
    <linearGradient id="g" x1="0" y1="0" x2="1" y2="1">
      <stop offset="0%" stop-color="#F4EEE9"/>
      <stop offset="100%" stop-color="#E0D2C8"/>
    </linearGradient>
  </defs>
  <rect width="1200" height="1200" fill="url(#g)"/>
  <g transform="translate(0 150)"><circle cx="-35" cy="-515" r="170" fill="none" stroke="#3A4C38" stroke-width="2" opacity="0.07"/><circle cx="-530" cy="-85" r="260" fill="none" stroke="#3A4C38" stroke-width="2" opacity="0.07"/><circle cx="-192" cy="-58" r="350" fill="none" stroke="#3A4C38" stroke-width="2" opacity="0.07"/></g>
  <g transform="translate(600 600) scale(1) rotate(2) translate(-600 -450)">
    <path d="M440 300 h320 q30 0 30 30 v330 q0 30 -30 30 h-320 z" fill="#3A4C38" opacity="0.88"/>
    <path d="M440 300 v390" stroke="#8F5739" stroke-width="28"/>
    <circle cx="440" cy="340" r="11" fill="#F4EEE9" opacity="0.85"/><circle cx="440" cy="402" r="11" fill="#F4EEE9" opacity="0.85"/><circle cx="440" cy="464" r="11" fill="#F4EEE9" opacity="0.85"/><circle cx="440" cy="526" r="11" fill="#F4EEE9" opacity="0.85"/><circle cx="440" cy="588" r="11" fill="#F4EEE9" opacity="0.85"/><circle cx="440" cy="650" r="11" fill="#F4EEE9" opacity="0.85"/>
    <path d="M540 430 q70 -70 150 0" fill="none" stroke="#F4EEE9" stroke-width="12" opacity="0.55" stroke-linecap="round"/></g>
</svg>
